<svg width="182" height="182" viewBox="0 0 182 182" fill="none" xmlns="http://www.w3.org/2000/svg">
<path d="M92.2054 77.3855H119.318C121.633 77.3855 125.838 80.491 125.838 82.959V87.9652L120.368 86.6338C120.417 84.1165 119.464 83.1898 117.051 82.8664C110.229 81.951 100.569 82.6772 93.4272 82.6678C84.8239 82.6564 76.1525 82.7397 67.57 82.8456C65.8811 82.8664 64.1128 82.5903 62.3425 82.9477C60.4815 83.3241 60.1998 84.8787 60.0787 86.5411C59.3165 97.0432 60.6707 108.455 60.0787 119.054C60.3246 122.448 62.0305 123.632 65.2834 123.863C69.2702 124.147 73.4518 123.4 77.4688 123.678L77.3742 103.46H71.2333V98.8304L71.517 98.5468H83.1369L83.1104 129.128L63.3941 129.153C59.3298 128.801 55.7648 127.908 54.6943 123.492C54.057 110.481 54.5941 97.342 54.4201 84.2829C54.4239 81.1661 58.543 77.3855 61.5028 77.3855H87.9539C88.5969 76.7576 88.0655 75.7836 88.0409 75.0309C87.9766 73.0413 87.5227 67.969 90.8513 69.0092C91.4338 69.1907 92.2035 70.1288 92.2035 70.6773V77.3855H92.2054Z" fill="url(#paint0_linear_89_82)"/>
<path d="M93.151 129.154H87.6721L87.6588 89.3676L115.727 89.29C120.593 89.8309 125.255 91.3912 126.868 96.4749C127.591 98.7482 127.661 105.642 127.063 107.991C126.099 111.783 121.664 114.983 117.807 114.983H93.4347L93.1416 115.635L93.151 129.154ZM93.3401 109.693H116.296C117.785 109.693 120.082 108.159 120.894 106.922C121.972 105.279 121.991 100.441 121.278 98.665C120.516 96.7605 117.771 94.7671 115.729 94.7671H93.4347C93.1907 95.1416 93.1624 96.0286 93.1416 96.5543C92.9997 100.142 92.8654 105.146 93.1416 108.664C93.1699 109.027 93.2531 109.349 93.3401 109.695V109.693Z" fill="url(#paint1_linear_89_82)"/>
<path d="M86.3463 72.8494L81.2512 67.2702C77.6276 63.8186 72.8976 58.7217 67.3751 59.4498C66.2196 59.603 64.8541 60.456 64.3548 61.5321C62.282 66.0163 69.6749 69.7061 72.9373 71.047C76.5666 72.5392 80.4248 73.4981 84.2659 74.264C83.9973 74.5798 83.5472 74.5931 83.1709 74.6801C77.2191 76.0588 67.0366 74.2356 62.9118 69.3562C55.7817 60.9212 64.5345 46.9543 76.1297 55.5784C81.0356 59.2267 86.178 66.5969 86.3463 72.8494Z" fill="url(#paint2_linear_89_82)"/>
<path d="M95.6076 74.3595L102.785 72.5666C106.433 71.4545 115.184 68.0673 115.632 63.689C115.995 60.141 113.117 59.0971 110.079 59.4564C104.19 60.1524 97.9092 68.941 93.9074 72.8503C93.6048 71.7893 93.9111 70.6848 94.191 69.6408C95.6114 64.3169 101.251 56.5987 106.183 54.0474C118.161 47.8555 124.4 66.0323 113.047 72.4361C108.09 75.2313 101.066 75.5869 95.6076 74.3595Z" fill="url(#paint3_linear_89_82)"/>
<path d="M126.027 116.686V129.156H120.737V118.199C122.469 117.697 124.207 116.72 126.027 116.687V116.686Z" fill="url(#paint4_linear_89_82)"/>
<defs>
<linearGradient id="paint0_linear_89_82" x1="90.1051" y1="68.8701" x2="90.1051" y2="129.153" gradientUnits="userSpaceOnUse">
<stop stop-color="#E2B45F"/>
<stop offset="1" stop-color="#B87B0D"/>
</linearGradient>
<linearGradient id="paint1_linear_89_82" x1="107.562" y1="89.29" x2="107.562" y2="129.154" gradientUnits="userSpaceOnUse">
<stop stop-color="#E2B45F"/>
<stop offset="1" stop-color="#B87B0D"/>
</linearGradient>
<linearGradient id="paint2_linear_89_82" x1="73.3424" y1="52.8672" x2="73.3424" y2="75.1268" gradientUnits="userSpaceOnUse">
<stop stop-color="#E2B45F"/>
<stop offset="1" stop-color="#B87B0D"/>
</linearGradient>
<linearGradient id="paint3_linear_89_82" x1="106.403" y1="52.7803" x2="106.403" y2="75.0299" gradientUnits="userSpaceOnUse">
<stop stop-color="#E2B45F"/>
<stop offset="1" stop-color="#B87B0D"/>
</linearGradient>
<linearGradient id="paint4_linear_89_82" x1="123.382" y1="116.686" x2="123.382" y2="129.156" gradientUnits="userSpaceOnUse">
<stop stop-color="#E2B45F"/>
<stop offset="1" stop-color="#B87B0D"/>
</linearGradient>
</defs>
</svg>
